<svg width="24" height="24" viewBox="0 0 24 24" fill="none" xmlns="http://www.w3.org/2000/svg">
<path d="M2.46826 11.4701C2.32487 11.6017 2.23499 11.7907 2.23499 12.0007C2.23499 12.2106 2.32487 12.3996 2.46826 12.5312L4.6667 14.7297C4.94788 15.0109 5.40375 15.0109 5.68494 14.7297C5.96611 14.4485 5.96611 13.9926 5.68494 13.7114L4.69416 12.7207H8.83467C9.23231 12.7207 9.55467 12.3983 9.55467 12.0007C9.55467 11.6031 9.23231 11.2807 8.83467 11.2807H4.69416L5.68474 10.2901C5.96591 10.0089 5.96591 9.55304 5.68474 9.27186C5.40355 8.99068 4.94768 8.99068 4.6665 9.27186L2.46826 11.4701Z" fill="#F5F3FF"/>
<path d="M12.3815 2.65054C12.2495 2.49715 12.054 2.40002 11.8357 2.40002C11.6257 2.40002 11.4367 2.4899 11.3051 2.63328L9.1059 4.83249C8.82473 5.11367 8.82473 5.56955 9.1059 5.85072C9.38708 6.1319 9.843 6.1319 10.1242 5.85072L11.1157 4.8592V8.9997C11.1157 9.39735 11.438 9.71974 11.8357 9.71974C12.2333 9.71974 12.5557 9.39735 12.5557 8.9997V4.86111L13.5455 5.85093C13.8266 6.1321 14.2825 6.1321 14.5637 5.85093C14.8449 5.56974 14.8449 5.11387 14.5637 4.83269L12.3815 2.65054Z" fill="#F5F3FF"/>
<path d="M12.5557 14.9991C12.5557 14.6014 12.2333 14.2791 11.8357 14.2791C11.438 14.2791 11.1157 14.6014 11.1157 14.9991V19.1421L10.1248 18.1512C9.84358 17.87 9.38769 17.87 9.10652 18.1512C8.82533 18.4324 8.82533 18.8883 9.10652 19.1695L11.3264 21.3893C11.6076 21.6705 12.0635 21.6705 12.3447 21.3893L14.5643 19.1697C14.8455 18.8885 14.8455 18.4326 14.5643 18.1514C14.2832 17.8702 13.8273 17.8702 13.5461 18.1514L12.5557 19.1418V14.9991Z" fill="#F5F3FF"/>
<path d="M14.834 11.2807C14.4364 11.2807 14.114 11.6031 14.114 12.0007C14.114 12.3983 14.4364 12.7207 14.834 12.7207H18.9768L17.9854 13.7121C17.7042 13.9932 17.7042 14.4491 17.9854 14.7303C18.2666 15.0115 18.7225 15.0115 19.0037 14.7303L21.2234 12.5106C21.3584 12.3756 21.4343 12.1924 21.4343 12.0015C21.4343 11.9035 21.4142 11.8075 21.3766 11.7191C21.338 11.6284 21.2814 11.5473 21.2112 11.4802L19.0035 9.27247C18.7223 8.99129 18.2664 8.99129 17.9852 9.27247C17.704 9.55365 17.704 10.0096 17.9852 10.2907L18.9753 11.2807H14.834Z" fill="#F5F3FF"/>
</svg>
