<svg width="24" height="24" viewBox="0 0 24 24" fill="none" xmlns="http://www.w3.org/2000/svg">
<path d="M5.86283 3.54389C6.06165 3.19952 6.50199 3.08154 6.84636 3.28036L8.66314 4.32928C8.68422 4.34144 8.70445 4.35452 8.72381 4.36842L17.1916 9.2573L16.7636 9.91688C16.7436 9.94767 16.7246 9.97911 16.7068 10.0111C16.3325 10.6801 15.7913 11.7807 15.6256 12.9413C15.5407 13.5358 15.5389 14.2476 15.7945 14.9566C15.8916 15.2263 16.0212 15.4815 16.1828 15.718L13.8623 19.7372C13.2658 20.7704 11.9448 21.1243 10.9116 20.5279L3.48066 16.2376C2.9635 15.939 2.61601 15.4575 2.47362 14.9236C2.33166 14.3914 2.39236 13.8025 2.69004 13.287L7.34211 5.22935L6.12636 4.52743C5.78199 4.32861 5.664 3.88827 5.86283 3.54389ZM8.5874 5.95244L4.08732 13.7468L16.3834 10.4535L8.5874 5.95244Z" fill="#F5F3FF"/>
<path d="M16.743 14.7476C16.9445 15.2294 17.2974 15.6439 17.8196 15.9453C19.0201 16.6385 20.555 16.2271 21.2481 15.0267C21.5866 14.4402 21.6679 13.8387 21.5503 13.2663C21.4366 12.7134 21.1473 12.2312 20.8169 11.8319C20.1631 11.0417 19.2265 10.4321 18.6081 10.0751L18.0241 9.73792L17.569 10.4393C17.5604 10.4525 17.5522 10.466 17.5446 10.4798C17.1863 11.1201 16.7162 12.0953 16.576 13.0769C16.5051 13.5737 16.512 14.116 16.6977 14.631C16.7118 14.6704 16.7269 14.7092 16.743 14.7476Z" fill="#F5F3FF"/>
</svg>
